HIERARCHY
ROOT Hips
{
  OFFSET 1.44925e-005 102.336 -0.101585
  CHANNELS 6 Xposition Yposition Zposition Zrotation Xrotation Yrotation
  JOINT LeftUpLeg
  {
    OFFSET 8.9458 -8.66707 0.101652
    CHANNELS 3 Zrotation Xrotation Yrotation
    JOINT LeftLeg
    {
      OFFSET 0 -44.4227 1.3727
      CHANNELS 3 Zrotation Xrotation Yrotation
      JOINT LeftFoot
      {
        OFFSET -0.253549 -42.0924 -1.46059
        CHANNELS 3 Zrotation Xrotation Yrotation
        JOINT LeftToes
        {
          OFFSET -0.04 -4.41509 8.4991
          CHANNELS 3 Zrotation Xrotation Yrotation
          End Site
          {
            OFFSET 0.08 -0.047448 9.77979
          }
        }
      }
    }
  }
  JOINT Spine
  {
    OFFSET 0 11.8905 0
    CHANNELS 3 Zrotation Xrotation Yrotation
    JOINT Spine1
    {
      OFFSET 0 25.6574 0.127663
      CHANNELS 3 Zrotation Xrotation Yrotation
      JOINT RightShoulder
      {
        OFFSET -8.99 -0.362252 -0.22
        CHANNELS 3 Zrotation Xrotation Yrotation
        JOINT RightArm
        {
          OFFSET -10.2827 -0.00338 0.322123
          CHANNELS 3 Zrotation Xrotation Yrotation
          JOINT RightForeArm
          {
            OFFSET -26.364 0.099144 -1.42434
            CHANNELS 3 Zrotation Xrotation Yrotation
            JOINT RightHand
            {
              OFFSET -22.0324 0.085362 1.02216
              CHANNELS 3 Zrotation Xrotation Yrotation
              End Site
              {
                OFFSET -13.3284 -0.6 1.50291
              }
            }
          }
        }
      }
      JOINT LeftShoulder1
      {
        OFFSET 8.99 -0.362252 -0.22
        CHANNELS 3 Zrotation Xrotation Yrotation
        JOINT LeftArm
        {
          OFFSET 10.2827 -0.00337999 0.322123
          CHANNELS 3 Zrotation Xrotation Yrotation
          JOINT LeftForeArm
          {
            OFFSET 26.2597 0.099144 -1.42434
            CHANNELS 3 Zrotation Xrotation Yrotation
            JOINT LeftHand
            {
              OFFSET 22.0902 0.085362 1.02216
              CHANNELS 3 Zrotation Xrotation Yrotation
              End Site
              {
                OFFSET 13.419 -0.6 1.50291
              }
            }
          }
        }
      }
      JOINT Head
      {
        OFFSET 0 8.73416 0.011341
        CHANNELS 3 Zrotation Xrotation Yrotation
        End Site
        {
          OFFSET -0.29 12.7742 2.51395
        }
      }
    }
  }
  JOINT RightUpLeg
  {
    OFFSET -8.9458 -8.66707 0.101652
    CHANNELS 3 Zrotation Xrotation Yrotation
    JOINT RightLeg
    {
      OFFSET 0 -44.4227 1.3727
      CHANNELS 3 Zrotation Xrotation Yrotation
      JOINT RightFoot
      {
        OFFSET 0.253549 -42.0924 -1.46059
        CHANNELS 3 Zrotation Xrotation Yrotation
        JOINT RightToes
        {
          OFFSET 0.04 -4.41509 8.4991
          CHANNELS 3 Zrotation Xrotation Yrotation
          End Site
          {
            OFFSET -0.08 -0.137448 9.77979
          }
        }
      }
    }
  }
}
MOTION
Frames:	14
Frame Time:	0.0333333
9.87899 102.184 -2.25988 -4.35124 -0.539382 -91.8101 2.82725 2.07432 4.44548 0.313718 9.27209 19.3085 -6.7961 -8.95846 -0.0278129 -1.31695e-009 8.75232e-006 -1.46684e-008 -0.52596 7.02603 -0.0654054 0.556626 3.02949 -0.180897 36.6613 1.81985 0.266211 39.4763 -7.42338 8.2154 8.0676 22.511 13.4583 -7.17959 9.70416 -2.001 -45.2573 3.63113 -3.47788 -25.4578 -2.2056 -0.219029 -3.1524 24.3096 -19.7485 5.82328 9.61819 -0.917488 0.174517 -11.2896 -2.33076 -3.68184 2.26878 -5.69718 -0.223118 10.8381 -12.5234 6.35051 -11.7641 0.0264868 0.0462048 0.000530889 0.662642 
9.95192 102.174 -2.39484 -4.37049 -0.552668 -91.7309 2.89519 2.01532 4.46162 0.323703 9.32714 19.2008 -6.64645 -8.85967 -0.0278054 -1.31695e-009 8.75232e-006 -1.46684e-008 -0.500821 7.15437 -0.0795349 0.614689 3.00312 -0.201407 36.7385 1.81985 0.266211 39.4213 -7.18361 8.25748 8.11455 22.1197 13.5385 -7.49914 9.69103 -1.93534 -45.0913 3.61378 -3.47781 -25.5884 -2.26788 -0.34404 -3.03649 24.5061 -19.8162 5.82328 9.61819 -0.917488 0.123425 -11.3587 -2.24121 -3.62512 2.2291 -5.7122 -0.166653 10.9083 -12.613 6.23055 -11.8375 0.0264939 0.0462048 0.000530889 0.662642 
10.1088 102.157 -2.68083 -4.3578 -0.593074 -91.6187 3.01753 1.85214 4.44027 0.388881 9.39011 19.0193 -6.70727 -8.74843 -0.0275188 -1.31695e-009 8.75232e-006 -1.46684e-008 -0.438375 7.425 -0.0810629 0.689361 2.8518 -0.208638 36.7948 1.81985 0.266211 39.4039 -6.87328 8.29284 8.1352 21.8259 13.6317 -7.8624 9.66411 -1.66142 -45.0396 3.60878 -3.47779 -25.5255 -2.0877 -0.459709 -2.84378 24.481 -20.0744 5.82328 9.61819 -0.917488 -0.0218873 -11.4639 -2.05827 -3.53421 2.05357 -5.73715 -0.0476035 11.0893 -12.7286 6.02495 -11.9582 0.0265056 0.0462048 0.000530889 0.662642 
10.306 102.139 -3.02211 -4.26232 -0.660315 -91.5125 3.13973 1.60416 4.36925 0.486279 9.36898 18.9762 -7.05269 -8.64266 -0.0245557 -1.31695e-009 8.75232e-006 -1.46684e-008 -0.285759 7.71285 -0.0741359 0.640879 2.62359 -0.176683 36.7546 1.81985 0.266211 39.535 -6.79014 8.30948 8.11325 21.9822 13.6203 -7.8996 9.64583 -1.37329 -45.135 3.6204 -3.47784 -25.251 -1.79154 -0.47494 -2.64859 24.0859 -20.4994 5.82328 9.61819 -0.917488 -0.152112 -11.597 -1.86707 -3.47234 1.70635 -5.79992 0.125122 11.3873 -12.8038 5.79857 -12.1126 0.0265209 0.0462048 0.000530889 0.662642 
10.5217 102.118 -3.35514 -4.1293 -0.763712 -91.3621 3.19766 1.30648 4.25491 0.578077 9.35767 19.0519 -7.23893 -8.44608 -0.0149106 -1.31695e-009 8.75232e-006 -1.46684e-008 -0.0162409 8.01113 -0.0948611 0.406733 2.40824 -0.123973 36.7285 1.81985 0.264709 39.6795 -6.75884 8.32904 8.10673 22.1305 13.585 -7.76512 9.64506 -1.29447 -45.1315 3.62065 -3.47534 -25.0474 -1.73515 -0.490339 -2.46569 23.6555 -20.9489 5.82328 9.61819 -0.917488 -0.137221 -11.798 -1.77194 -3.49394 1.28078 -5.97345 0.364343 11.7751 -12.8238 5.56719 -12.2973 0.0265394 0.0462048 0.000530889 0.662642 
10.7581 102.085 -3.66085 -3.97968 -0.933576 -91.1673 3.1112 0.885932 4.00374 0.720578 9.5595 19.1223 -7.13934 -8.3656 -0.00935991 -1.31695e-009 8.75232e-006 -1.46684e-008 0.289964 8.34305 -0.141422 0.0798349 2.19622 -0.0697993 36.7599 1.81985 0.260012 39.6856 -6.51559 8.34537 8.12328 21.9696 13.6324 -7.75091 9.64682 -1.35081 -45.023 3.60651 -3.46522 -24.9639 -1.88397 -0.537905 -2.25667 23.4054 -21.3863 5.82328 9.61819 -0.917488 -0.0105384 -12.0228 -1.76627 -3.65434 0.794649 -6.28629 0.65403 12.2601 -12.7433 5.39145 -12.5034 0.0279681 0.0462048 0.000530889 0.662642 
11.0135 102.029 -3.91844 -3.74221 -1.17459 -90.9936 2.88505 0.153861 3.54782 0.975614 10.1806 19.3588 -7.35516 -8.8705 -0.0411693 -1.31695e-009 8.75232e-006 -1.46684e-008 0.515545 8.63223 -0.18138 -0.177113 1.90783 -0.0258535 36.7012 1.81985 0.264075 39.6137 -6.18467 8.32567 8.12375 21.8422 13.6997 -7.81705 9.64904 -1.37766 -45.0294 3.60391 -3.45924 -24.8479 -2.07229 -0.471435 -1.97727 23.333 -21.8846 5.82328 9.61819 -0.917488 0.080017 -12.1416 -1.74396 -3.95827 0.113491 -6.66678 0.936439 12.9198 -12.5289 5.33097 -12.7728 0.035958 0.0462048 0.000530889 0.662642 
11.271 101.944 -4.08838 -3.44281 -1.42697 -90.8035 2.63791 -0.955109 3.02378 1.24279 11.4684 19.9695 -8.33969 -9.97542 -0.126942 -1.31695e-009 8.75232e-006 -1.46684e-008 0.58446 8.87328 -0.229872 -0.224813 1.52474 -0.0436996 36.5011 1.81985 0.281506 39.4926 -6.02444 8.26888 8.12524 21.9748 13.6737 -7.75955 9.65307 -1.41602 -45.153 3.61767 -3.46739 -24.7609 -2.42714 -0.244386 -1.68977 23.4436 -22.3242 5.82328 9.61819 -0.917488 0.105006 -12.13 -1.70151 -4.31045 -0.728427 -7.01732 1.14584 13.7575 -12.3089 5.33842 -13.1473 0.0516347 0.0462048 0.000530889 0.662642 
11.5143 101.838 -4.1467 -3.3229 -1.61327 -90.4393 2.44825 -2.1355 2.59293 1.35548 13.457 20.6192 -9.45678 -10.9808 -0.226675 -1.31695e-009 8.75232e-006 -1.46684e-008 0.484381 9.2489 -0.342738 0.0164054 1.16483 -0.188169 36.355 1.81984 0.290831 39.1377 -6.08506 8.23133 8.20404 22.0977 13.537 -7.64358 9.66344 -1.52717 -45.1491 3.6207 -3.47379 -24.9352 -2.99712 -0.103124 -1.58378 23.6848 -22.3373 5.82328 9.61819 -0.917488 0.204627 -12.1316 -1.77818 -4.57281 -1.35821 -7.29194 1.23247 14.6133 -12.3368 5.35865 -13.5511 0.0692923 0.0462048 0.000530889 0.662642 
11.7197 101.729 -4.08872 -3.56098 -1.67531 -89.913 2.27833 -2.84321 2.26951 1.32937 15.4772 20.6866 -9.58967 -11.3155 -0.257735 -1.31695e-009 8.75232e-006 -1.46684e-008 0.321739 9.78371 -0.504326 0.469288 1.02654 -0.415862 36.3635 1.81984 0.287763 38.5034 -6.44249 8.24368 8.37882 22.1778 13.2671 -7.68982 9.66496 -1.58067 -44.9606 3.6004 -3.46268 -25.3365 -3.49085 -0.257972 -1.77297 24.0125 -21.7711 5.82328 9.61819 -0.917488 0.464218 -12.1886 -2.02527 -4.66934 -1.46616 -7.44073 1.18088 15.2767 -12.6963 5.47129 -13.828 0.0869122 0.0462048 0.000530889 0.662642 
11.8384 101.66 -3.90628 -3.98117 -1.58728 -89.5087 2.14662 -2.77277 2.14018 1.28547 16.416 20.0607 -8.54151 -11.2159 -0.216815 -1.31695e-009 8.75232e-006 -1.46684e-008 0.277943 10.0951 -0.614075 0.879506 1.20831 -0.581942 36.3255 1.81984 0.297341 37.878 -7.26153 8.22055 8.581 22.6085 12.8118 -7.85059 9.65688 -1.5331 -44.8115 3.57968 -3.44481 -25.6681 -3.60475 -0.480613 -2.07954 24.4689 -21.0489 5.82328 9.61819 -0.917488 0.766521 -12.0433 -2.2881 -4.60789 -1.15427 -7.42071 1.0418 15.5404 -13.1092 5.72239 -13.8726 0.102613 0.0462048 0.000530889 0.662642 
11.8315 101.67 -3.60112 -4.23599 -1.34636 -89.412 2.19593 -2.13694 2.45726 1.2079 15.8198 19.2159 -7.27448 -11.169 -0.173824 -1.31695e-009 8.75232e-006 -1.46684e-008 0.360654 9.8229 -0.627505 1.12743 1.56532 -0.645068 36.1086 1.81984 0.324425 37.4084 -8.329 8.03076 8.73451 23.3751 12.2923 -7.86008 9.66034 -1.59762 -44.8497 3.58157 -3.44277 -25.8111 -3.22229 -0.309336 -2.17267 24.8405 -20.7587 5.82328 9.61819 -0.917488 0.94798 -11.4202 -2.41693 -4.44125 -0.722633 -7.25153 0.931894 15.243 -13.3189 5.94534 -13.6616 0.105159 0.0462048 0.000530889 0.662642 
11.7341 101.743 -3.2166 -4.20583 -1.04426 -89.415 2.44091 -1.4421 3.16063 0.971656 14.4399 18.5606 -6.65266 -11.1645 -0.154339 -1.31695e-009 8.75232e-006 -1.46684e-008 0.260047 9.12674 -0.61865 1.46315 1.8333 -0.747975 35.931 1.81984 0.335072 36.8512 -9.15667 7.65401 8.78744 23.9391 11.9852 -7.68028 9.67934 -1.82483 -44.9702 3.6009 -3.46224 -25.9263 -2.83098 0.365123 -2.01296 25.0355 -20.8979 5.82328 9.61819 -0.917488 1.00266 -10.4456 -2.47407 -4.25678 -0.347171 -7.00499 0.884279 14.4907 -13.5135 6.02582 -13.2358 0.0893439 0.0462048 0.000530889 0.662642 
11.6431 101.823 -2.81965 -4.04435 -0.892347 -89.2642 2.61243 -1.04718 3.72936 0.600538 13.3595 18.1097 -6.54397 -10.9536 -0.139962 -1.31695e-009 8.75232e-006 -1.46684e-008 -0.327701 8.46764 -0.659411 2.08411 1.90283 -0.990197 36.0155 1.81984 0.310411 36.1384 -9.7848 7.1798 8.71181 24.0582 11.9976 -7.56904 9.68809 -1.91864 -44.9959 3.61519 -3.48604 -26.1088 -3.04297 1.15976 -1.93051 25.2288 -20.9164 5.82328 9.61819 -0.917488 1.03732 -9.58482 -2.63296 -4.16252 -0.108404 -6.70338 0.720794 13.7475 -14.0248 6.17906 -12.8127 0.076249 0.0462048 0.000530889 0.662642 
